<svg version="1" xmlns="http://www.w3.org/2000/svg" width="1208" height="1208" viewBox="0 0 906.000000 906.000000"><path d="M777.9 44.3c-22.5 9.5-31.8 33.5-21.4 55.3 6.8 14.1 20.1 22.4 36 22.4 16 0 29-8.2 36.2-22.8 3.6-7.2 3.8-8.1 3.8-17.1-.1-7.6-.5-10.8-2.4-15.4-3.2-8.1-11.5-16.8-19.9-20.9-6-3-7.7-3.3-16.7-3.6-8.6-.2-10.8.1-15.6 2.1zM731.6 54.1c-2 1.6-2.6 2.9-2.6 5.9 0 4.9 2.5 7.9 7.2 8.7 3.2.5 4.1.1 6.8-2.5 3.2-3.2 3.7-6 1.8-9.5-2.6-5-8.6-6.2-13.2-2.6zM823.4 158.6c-7 4.8-9.8 10.3-9.2 18.1 1.5 18.1 25.5 24.3 35.5 9.1 2.4-3.5 2.8-5.2 2.8-10.8 0-7.8-2.4-12.2-8.9-16.4-5.7-3.7-14.7-3.7-20.2 0zM429 228.6c-19.9 2.4-40.2 8.3-56.1 16.5-12.3 6.3-14.3 7.9-22.3 18.3-19.2 24.7-27.9 53.2-23.6 77.1 1.8 9.9 3.9 26.2 4.6 36.2l.7 10.3h-9.2c-7.8 0-10.1.4-14.6 2.6-5.9 2.7-9.6 6.6-12.8 13.1-2 4.2-2 4.4-.4 16 2.5 17.5 9.7 39.9 15.2 47.3 1.4 1.9 6.2 6 10.7 9l8.2 5.5 3.6 9.5c8.2 21.8 19.1 35.8 39.3 50.5l9.6 7v10.3c.1 10.3.1 10.4-2.9 13.2-8.7 8.2-47.2 18.8-78 21.5-14.8 1.3-31.3 5.9-42.3 11.7-6.7 3.6-17.4 14.5-20.5 21-3.6 7.3-2.5 18.5 2.3 23.8 1.2 1.3 1.1 2.3-.5 7.1-1.1 3-2.4 8.4-3 12-2.1 12.6-4 44.8-4 67.6 0 21.2.2 23.5 1.8 25.1 6 6 52.9 32 71.7 39.8 30.1 12.4 61.7 20.1 98.5 24 18.1 1.9 84.4 2.7 100.5 1.2 34.3-3.2 83.1-16.3 126.9-34.2 18-7.4 26.4-11.5 28.1-13.9 1.6-2.3 1.6-2.7-3.1-103.7-.5-12.9-1.5-19.1-4-27.2-1.4-4.2-1.3-5 0-7.7.9-1.7 1.6-5.5 1.6-8.8 0-13.4-11.3-27.5-27.1-33.9-16-6.6-36.2-10-100.4-17.4-13-1.5-15.5-3.7-18-15.6-2.7-12.6-2.7-12.4 7.8-20.3 5-3.8 11.7-9.2 14.8-12 11-9.8 22.3-27.1 26.9-41.1 3-9 4-10.3 12-15 3.8-2.2 8.2-5.6 9.6-7.4 5.5-6.9 11.9-25.5 15.4-45 2.7-14.7 2.6-17.3-.9-22.7-6.1-9.4-12.5-12.7-25.6-13.1l-8.8-.3.6-15c.4-8.3 1-21.5 1.3-29.5 1.3-28.6-4.1-54.1-15.5-73.1-5-8.4-13.7-15.1-30.6-23.5-23.6-11.7-41.5-16.2-67.5-16.8-9.1-.2-18.1-.2-20 0zm-19 49.5c7 2.2 13.7 3.4 25.5 4.5 14.6 1.5 16.8 1.4 26.8-.1 6-.9 13.5-2.5 16.6-3.6 7.2-2.4 12.6-2.4 22.6.1 10.1 2.5 27.9 11.2 30.2 14.7 2.9 4.4 9 22.6 11.9 35.3 2.9 12.5 4.4 27.6 4.4 43.8 0 9 .4 17.1.9 18.1 1.3 2.3 3.5 84.9 2.3 86.4-.4.7-1.5 3.2-2.2 5.7-5.4 17.8-17.8 34.6-34.3 46.6-5.1 3.7-11.5 8.7-14.3 11-9.2 7.7-33.1 20.2-45.9 24-7.5 2.2-16.6 2.2-23.6-.1-14.4-4.6-33-15.4-48-27.8-4.1-3.4-9.3-7.5-11.5-9.1-14.4-10.8-25.4-27.4-32.3-48.8-1.3-4.1.1-60.1 1.9-75.8.5-4.7 1-12.3 1-16.9 0-18.5 3.3-50.4 6.5-62.6 2.2-8.3 7.4-23.8 9.2-27 3.4-6.3 9.8-11 21.6-15.6 4.7-1.9 17.8-5.6 20.2-5.8.6 0 5.3 1.3 10.5 3zM334 402c0 4.4-.4 8-.9 8s-3.3-1.1-6.4-2.5c-7.9-3.4-8.4-2.6-6.8 11.5 1.5 13.9 1.6 14.2 5.5 13.8 2.4-.2 3.1-.7 2.9-2.3-1.9-16.6-1.9-16.6 3.2-14.3 2.4 1.1 2.5 1.5 2.5 9.7 0 4.7-.3 16.3-.7 25.7l-.6 17.1-7.5-4.5c-4.1-2.5-8.2-5.9-9.3-7.6-4.9-8-10.8-26.9-13.4-43.1-1.2-8-1.2-8 1.4-11.7 4.5-6.3 8.1-7.8 19.9-7.8H334v8zm243.1-6.6c3.6 1.5 6.9 4.6 8.9 8.5 2.7 5.2-6.9 43.8-13.2 53.5-2.4 3.6-13.9 12-14.9 10.8-.4-.4-.9-10.9-1.2-23.3l-.6-22.7 4.2-1.6c2.4-.9 4.5-1.6 4.8-1.6.3 0 .2 2.1-.2 4.7-.4 2.7-.8 6.7-.8 9-.1 3.9.1 4.3 2.4 4.3h3.3c.9.1 3-14.8 3.1-22.3.1-6.7-.2-6.8-9.1-3.2-3.4 1.4-6.5 2.5-7 2.5-1.2 0-1-7.7.3-14.3l1.2-5.7h7.7c4.4 0 9.2.6 11.1 1.4zM531 601.2c12.9 13.7 22.1 20.4 40.5 29.3 19.4 9.5 50.2 17.1 59.7 14.8 2.3-.6 5-1.3 6-1.7 1.3-.6 2.1.4 3.8 5.1 2.9 7.5 3.7 15.2 5 46.3 1.2 30.6 2.9 66.9 3.2 72.8l.3 4.3-10 4.5c-12.9 5.9-42.4 17.4-44.6 17.4-.5 0-1-10.2-1.1-22.8-.3-21.9-.4-22.7-2.3-22.7s-2 .8-2.5 24l-.5 23.9-16.5 4.8c-49.1 14.4-83.7 18.4-136.5 16-51-2.4-94.7-11.5-127.9-26.6l-7.6-3.5-.2-19.8c-.3-19-.4-19.8-2.3-19.8s-2 .8-2.3 18.8l-.2 18.9-11.3-6c-10.9-5.8-23.1-12.9-35.1-20.7l-5.9-3.8.6-34.6c.7-36.6 2-51.2 5.8-63.1l2.1-6.8 6.2.5c11.8 1 38.2-6 57.1-15.2 18.2-8.8 31.7-19.7 48.3-39 4.7-5.4 5.6-5.2 6.7 1.7.6 3.5.9 3.8 10.8 8.1 17.3 7.6 29.1 11.4 45.5 14.6 8.6 1.8 25.9 1.3 36.8-.9 13-2.6 32.4-9.2 45.6-15.5 5.1-2.4 5.9-3.2 6.9-6.7 1.6-5.9 2.8-8.8 3.6-8.8.5 0 6 5.5 12.3 12.2z"/><path d="M384 354.1c-10.2 1.8-15 3.1-15.5 4-.8 1.2 3.5 8.9 5 8.9.6 0 3.8-.7 7-1.6 6.6-1.8 27.1-2.4 37-1.1l6 .7 1.8-4.1c1-2.3 1.5-4.5 1-4.9-2.8-2.5-32.2-3.8-42.3-1.9zM473.1 355.1c-5.2 1-9.8 2.2-10.4 2.8-.8.8 3.8 9.1 5.2 9.1.3 0 3.5-.8 7.1-1.6 7.1-1.8 26.6-2.4 36.5-1.2l6 .8 2.2-4.5 2.3-4.5-2.3-.5c-14.1-3.1-32.3-3.2-46.6-.4zM390.3 378c-2.8 1.7-5.3 4.7-5.3 6.4 0 .3 1.3.6 2.9.6 5.1 0 8.1 6.9 4.5 10.4-.8.9-3.1 1.6-5 1.6-4 0-4.2 1.1-1.4 5.8 2.3 3.8 7.5 7.2 10.9 7.2 6.6 0 13.1-8.2 13.1-16.5 0-7.1-3.4-12.2-10.7-15.9-4.1-2.1-5.1-2-9 .4zM487.8 378.2c-4.3 2.5-5 4.8-1.3 4.8 2.7 0 6.5 3.5 6.5 6 0 2.3-2.6 5.7-4.9 6.3-1.1.2-3.2-.2-4.7-.9-3.5-1.9-4-1.2-2.6 3.3 4.2 13.7 18.5 15 25 2.3 3.7-7.4 2.6-13.7-3.5-19-6.3-5.6-8.9-6.1-14.5-2.8zM425 456.9c0 1.6-1.1 2-8.2 2.6-21.5 1.8-25.8 3.1-30.3 8.9-4.5 5.9-6.5 12.7-6.5 22.1 0 9.4.7 10.5 7.3 10.5 4.3 0 6.7-2.6 6.7-7 0-7.4 6-18 10.2-18 .9 0 3.4 1 5.5 2.2 15.4 9 18.5 9.7 28.1 6.8 5.4-1.6 7.7-1.8 9.1-1 3.3 1.7 13.5 2.4 17.4 1.1 1.9-.7 6.3-3 9.7-5.2 6.7-4.3 10.8-4.9 13.4-2 2.2 2.4 5.6 11.8 5.6 15.3 0 3.9 2.6 6.1 6.4 5.4 5-1 7.6-4.3 7.6-9.5 0-10.4-5.4-21.8-12.1-25.3-4.7-2.4-17.4-4.8-25.5-4.8-5.7 0-6.4-.2-6.4-2 0-2.6-.8-2.5-7.5 1-4.4 2.3-7 3-11.4 3-5.5 0-13.1-2.6-14.5-4.9-1.2-1.9-4.6-1.3-4.6.8z"/><path d="M408.2 492.2c-1.9 1.9-1.5 12.3.7 16.6 3.4 6.6 11.2 12.8 19.8 15.9 6.7 2.4 24 2.4 30.8 0 11.6-4.2 19.9-11.7 22.8-20.7 1.7-5.2 1.4-10.8-.7-12.2-2-1.4-72.1-.9-73.4.4zm59.8 6.7c0 2-.8 3.4-2.7 4.7-2.4 1.6-5.2 2-18.8 2.2-20.5.5-26.5-1.2-26.5-7.4V496h48v2.9zM499 668c-9.9 1.4-14.2 4.2-17.6 11.4-4.1 8.8-2.8 16.2 4.1 22.9l3.7 3.5-4.1 4.1c-8.7 8.7-7.7 23.2 2 29.7l2.8 1.9-3.4 2.7c-11.6 9.6-9.1 26.6 5 34.1 4.6 2.4 5.3 2.5 54.8 1.2 24-.6 30.1-1 31.2-2.2 1.9-1.8 1.9-2.7.1-4.2-1.1-.9-11.4-1.2-40.8-.9-37.7.3-39.5.2-43.2-1.7-5.7-2.9-8.1-6.6-8.1-12.5 0-3.4.6-5.4 2-7 4.5-5 5-5.1 48.3-5.8l40.6-.7 1.3-2.4c.7-1.5.8-3.1.3-4-.8-1.4-5.8-1.6-41.9-1.6-40 0-41 0-43.8-2.1-7-5.2-9-12.1-5.3-18.2 3.7-6 4.9-6.2 49.2-7l40.2-.7 1.3-2.4c.7-1.6.8-3.1.2-4.2-.8-1.6-3.6-1.7-40.6-1.2l-39.8.5-4.4-2.4c-10.4-5.6-10.8-18.4-.8-22.8 3.7-1.7 8.5-1.9 44.4-2.6 41.9-.7 42.2-.8 40.7-4.9-.5-1.3-5.5-1.5-36.8-1.4-19.8.1-38.6.5-41.6.9zM308 675.7v3l10.7.6c5.8.4 23.4.7 38.9.7 26.8 0 28.4-.1 29.3-1.9 2.3-4.2.2-4.5-40.5-4.9l-38.4-.5v3zM307.3 708.8c-.9.9-1 1.9-.3 3.1.8 1.6 3.3 1.8 23.6 2.4 12.5.4 29.8.7 38.5.7 14.2 0 15.9-.2 16.8-1.8 2.2-4.1.2-4.7-17.6-4.9-55.3-.9-59.6-.8-61 .5zM313.2 742.8c-.8.5-1.2 2-1 3.3l.3 2.4 38.6.3c34.6.2 38.8.1 40-1.4 1.1-1.4 1-1.8-.6-3-1.5-1.1-7.1-1.4-27-1.4-13.9 0-30.5-.3-37.1-.6-6.7-.3-12.5-.1-13.2.4zM314.7 776.6c-1.4 1.4-.7 5.3 1.1 5.7.9.3 18.5.7 39.1.9 34.6.3 37.5.2 38.5-1.4 2.6-4.2.4-4.5-39.9-5.2-20.9-.4-38.4-.4-38.8 0zM190.5 809.4c-7 3.6-9.9 8.1-10.3 16.5-.3 5.8 0 7.1 2.4 10.8 1.7 2.5 4.7 5.3 7.7 6.9 12.8 6.9 28.2-2.4 28.1-17.1-.1-14.7-14.8-23.8-27.9-17.1z"/></svg>