<svg xmlns="http://www.w3.org/2000/svg" width="350" height="300"><path d="M166.169 295.574c-4.092-2.041-4.12-2.11-4.043-9.705.067-6.476.749-8.91 4.447-15.873 12.502-23.538 41.64-51.82 96.443-93.613 10.2-7.778 18.554-14.5 18.564-14.937.044-1.948-8.664-27.25-9.38-27.25-.44 0-1.636 1.72-2.658 3.821-2.862 5.888-9.015 13.816-10.722 13.816-.843 0-2.49 2.167-3.66 4.817-2.264 5.123-2.178 5.102-11.29 2.814-2.697-.678-3.097-.268-4.555 4.662-1.746 5.904-4.929 8.939-8.42 8.027-1.68-.439-2.74.47-4.257 3.646-2.212 4.631-5.506 6.38-8.05 4.272-1.29-1.07-2.06-.663-3.692 1.96-3.374 5.418-6.62 8.604-8.764 8.604-1.504 0-2.228 1.42-2.85 5.585-.828 5.56-2.32 8.524-4.288 8.524-.568 0-1.033-1.205-1.033-2.678 0-4.85-3.188-7.904-8.254-7.904-7.418 0-10.215 1.888-11.078 7.479-1.976 12.797-7.951 23.092-13.402 23.092-4.646 0-6.52-2.828-6.313-9.531.366-11.908 2.88-20.196 5.949-19.614 2.59.492 3.133 10.766.91 17.21-1.544 4.475-1.517 4.88.328 4.88 4.058 0 7.676-5.742 9.408-14.931.844-4.477.7-4.97-1.555-5.295-3.157-.455-2.877-5.177.507-8.562 1.91-1.91 2.732-2.082 4.544-.952 1.63 1.016 3.297 1.048 6.329.118 5.364-1.644 12.25-.32 13.849 2.662 1.914 3.572 3.75 1.427 2.94-3.438-1.092-6.569 2.781-16.676 7.43-19.388 3.444-2.008 3.715-2.02 3.715-.155 0 1.106-1.59 3.818-3.533 6.028-3.636 4.136-5.093 11.7-2.06 10.702 3.098-1.019 8.842-10.185 9.617-15.345.75-5 4.476-10.32 5.767-8.234.333.538.032 3.482-.67 6.542-.701 3.06-.877 5.96-.392 6.446 1.228 1.226 4.223-3.149 4.223-6.17 0-1.37.715-3.465 1.588-4.658 1.699-2.32 4.3-1.594 4.3 1.2 0 .932.752 1.695 1.672 1.695 1.91 0 3.552-5.937 2.53-9.148-.374-1.18.049-3.143.94-4.36 1.583-2.161 1.775-2.153 7.79.344 3.392 1.407 6.69 2.237 7.328 1.843.672-.415.837-2.863.393-5.823-.817-5.441.87-10.382 3.27-9.574.766.258 1.392 1.746 1.392 3.305 0 2.052.651 2.836 2.355 2.836 3.881 0 8.853-11.415 9.67-22.2.412-5.443 1.315-9.48 2.303-10.3 2.262-1.874 2.935-.809 3.593 5.692.498 4.916 10.153 37.597 11.507 38.949.634.633 13.747-8.965 31.29-22.902 12.753-10.132 17.583-14.48 22.589-20.338 1.995-2.336 6.77-3.375 6.77-1.475 0 1.204-7.18 7.965-14.718 13.86-3.238 2.532-6.153 4.902-6.477 5.267-.323.365-9.217 7.21-19.764 15.21-14.061 10.668-18.987 15.038-18.468 16.387.39 1.011 1.244 6.206 1.898 11.544 3.061 24.964-6.728 47.256-32.144 73.195-21.528 21.97-53.485 42.135-75.249 47.48-9.72 2.387-11.332 2.371-16.41-.161zm23.049-6.599c23.625-8.05 45.727-21.674 65.079-40.113 20.684-19.708 31.974-40.808 31.974-59.754 0-10.191-2.158-23.165-3.853-23.165-1.814 0-30.035 21.46-50.765 38.604-19.685 16.28-44.214 40.223-53.057 51.791-7.399 9.679-14.782 23.958-14.782 28.589 0 2.077.881 4.296 2.06 5.19 3.276 2.483 14.29 1.944 23.344-1.142zm-25.06-81.578c.339-1.775.31-3.724-.067-4.332-.765-1.237-1.707 2.337-1.834 5.5-.132 3.297 1.223 2.372 1.9-1.168zm-13.388 40.558c-.074-23.442-.227-50.31-.905-59.672-1.16-16.032-1.794-16.91-3.177-18.047-1.2-.987-5.783-1.021-14.302 9.803-6.78 8.616-18.23 36.929-22.82 59.392-5.197 25.426-8.475 35.862-11.268 35.862-2.014 0-2.523-2.673-3.357-17.637-.711-12.748-2.49-24.394-4.131-27.045-1.692-2.733-5.855-.545-7.868 6.606-2.249 7.989-3.645 10.069-2.259 33.079.494 8.195.728 11.688.64 13.811-.074 1.791-.354 2.796-1.381 2.897-1.05.104-1.614-1.094-1.873-2.46-.259-1.367-.483-3.581-.988-8.354-.552-5.23-1.288-12.615-2.118-21.38l-2.837-30.541c-.1-1.08.65-1.95 1.705-2.038 1.056-.087 1.98.681 2.094 1.87l.58 6.016 1.137 12.762s.022-2.144 2.612-9.491c2.59-7.347 6.57-10.406 9.514-8.832 2.29 1.224 2.548.2 1.826-7.036-.41-4.117-1.1-13.437-1.531-20.712-.738-12.455-1.765-15.937-3.288-11.145-1.003 3.156-7.363 9.675-9.439 9.675-1.251 0-1.833-1.12-1.833-3.528 0-2.31.594-3.527 1.72-3.527 2.274 0 6.174-4.218 9.046-9.782 1.9-3.682 2.276-6.543 2.083-15.874-1.103-53.45-15.398-69.432-43.055-48.134-11.766 9.06-29.207 29.187-36.845 42.518-3.87 6.756-5.952 8.277-5.952 4.352 0-3.712 16.718-26.11 29.35-39.324 18.023-18.852 33.222-25.775 43.223-19.686 9.71 5.913 13.858 17.759 15.989 45.658.753 9.863 1.667 17.927 2.03 17.922.692-.01 2.24-2.71 12.124-21.155 7.767-14.495 11.256-19.989 12.691-19.989 2.208 0 1.144 3.828-4.136 14.886-2.914 6.104-5.298 11.335-5.298 11.626 0 .29 2.517-1.262 5.593-3.45 10.627-7.56 16.802-6.161 18.61 4.216l.882 5.057 1.609-3.867c.885-2.126 2.015-4.21 3.137-4.63.746-.28 1.923.263 2.518-.227 1.815-1.493 2.973-4.946 3.718-8.913a969.5 969.5 0 0 1 1.004-5.291c.56-2.752 3.656-10.511 5.043-12.64 1.852-2.844 4.993-3.586 4.972-1.176-.02 2.273-3.14 12.016-5.044 15.753-5.38 10.554-2.139 11.875 5.357 2.183 2.75-3.555 5.66-6.465 6.47-6.467 2.334-.007 1.753 1.304-3.868 8.738-5.934 7.848-10.74 11.528-13.794 10.563-1.356-.429-2.06-.029-2.06 1.17 0 1-1.262 2.136-2.803 2.522-2.314.58-3.06 1.915-4.282 7.665-.814 3.83-1.937 7.042-2.496 7.14-3.65.633-3.87.18-3.914-8.07-.074-13.521-4.008-15.272-15.179-6.755-3.047 2.323-7.298 4.51-9.448 4.858-3.385.548-4.472 1.677-8.135 8.45l-4.229 7.818 1.09 19.171c.993 17.463 4.968 49.612 5.41 51.967.114.614 1.08 2.369.426 4.083-1.338 3.514-.184 17.097 1.236 14.55.49-.878 3.1-10.856 5.8-22.173 9.658-40.48 18.394-62.69 28.566-72.621 10.79-10.536 18.55-8.367 19.667 6.188.35 4.555 1.097 31.908 1.065 60.848-.056 50.707-.139 52.617-2.274 52.617-2.125 0-2.22-1.727-2.35-42.623zm19.313-122.398c.918-6.688 4.122-16.131 6.311-18.601 1.403-1.583 1.466-2.467.325-4.596-2.586-4.825-1.66-31.533 1.652-47.677 3.161-15.401 7.69-28.388 9.581-27.47 2.827 1.373-.231 55.15-4.04 71.045-.901 3.76-.758 4.885.762 5.995 1.05.766 1.488 1.986.998 2.778-.613.99-1.313 1.047-2.348.188-2.536-2.101-2.829-.149-.784 5.23 2.627 6.912 3.336 7.4 4.93 3.39.744-1.867 1.591-2.753 1.884-1.968.82 2.199-2.35 7.902-4.636 8.342-1.275.245-2.555-.74-3.418-2.631-1.851-4.057-2.604-3.821-4.425 1.386-3.591 10.274-7.98 13.238-6.792 4.59zm15.434-68.377c.653-17.954.598-18.625-1.217-14.697-3.736 8.084-6.142 24.486-5.95 40.565.1 8.407.695 16.08 1.32 17.05 1.79 2.772 5.057-21.205 5.847-42.918zm11.61 42.651c.76-8.12 4.924-20.729 7.13-21.59.858-.335 1.463-4.524 1.643-11.383.568-21.548 7.008-57.85 11.155-62.883 2.535-3.077 3.453-1.353 2.819 5.29-.355 3.72-.958 12.582-1.34 19.696-.82 15.296-3.468 36.91-5.837 47.65-1.368 6.206-1.42 8.594-.266 12.494.784 2.652 1.895 5.02 2.47 5.262.574.241 2.746-4.637 4.828-10.84 4.505-13.427 7.415-18.704 10.314-18.704 2.78 0 3.688 2.548 2.73 7.652-.573 3.044-1.373 4.106-3.096 4.106-1.891 0-2.187-.548-1.585-2.94.406-1.616.423-2.94.038-2.94-1.033 0-3.537 6.568-5.944 15.592-3.3 12.37-8.54 17.325-11.487 10.865-.738-1.617-1.654-2.916-2.036-2.886-.381.029-2.018 2.807-3.637 6.173-2.167 4.503-3.691 6.225-5.773 6.518-2.796.395-2.821.308-2.126-7.132zm7.511-4.522c2.95-7.15 3.63-14.504 1.27-13.75-1.58.504-4.786 9.215-6.11 16.604-1.196 6.67 1.588 5.03 4.84-2.854zm7.914-33.132c2.275-14.72 3.902-40.75 2.463-39.407-3.163 2.95-8.51 52.635-5.665 52.635.636 0 2.077-5.952 3.202-13.228zm30.388 16.52c-.987-1.007-1.413-2.57-1.413-3.99 0-1.417-.794-2.882-1.766-3.254-2.6-.997-1.973-7.593.547-6.279 2.499 1.303 3.374-2.399 4.67-4.593 2.246-3.8 5.12-5.137 6.444-2.997 1.062 1.717-1.563 9.145-4.014 11.36-2.583 2.335-2.74 4.853-1.225 6.414.863.889 2.692.174 3.667-.587 5.509-4.302 6.477-10.326 8.241-19.28 1.376-6.984 3.47-9.717 3.436-4.484-.03 4.417-3.425 17.691-5.562 21.743-1.106 2.097-3.07 4.075-4.935 5.38-2.476 1.734-6.238 2.458-8.09.567zm-8.478-62.086c0-1.987 11.218-12.93 13.255-12.93 3.719 0 3.19 2.184-1.178 4.873-2.433 1.498-5.662 4.189-7.177 5.98-2.804 3.316-4.9 4.204-4.9 2.077z"/></svg>